<svg width="101" height="60" viewBox="0 0 101 60" fill="none" xmlns="http://www.w3.org/2000/svg">
<g clip-path="url(#clip0_5_110)">
<path d="M52.8467 38.5237V22.5929H55.3648V36.2307H62.539V38.5237H52.8467ZM78.8721 38.462C77.5133 43.0176 75.0814 47.1579 71.8299 50.5255C67.6673 54.8368 62.1583 57.8839 55.8358 58.9178C49.7314 59.9159 43.7634 58.8867 38.5977 56.3181C33.7424 53.9042 29.5977 50.1284 26.7161 45.3979L25.5835 46.1842L24.7486 40.0088L30.1066 43.0449L28.9192 43.8688C31.5365 48.2117 35.3244 51.6775 39.7681 53.8867C44.4527 56.2161 49.871 57.1488 55.4177 56.2419C61.1509 55.3043 66.149 52.5385 69.9278 48.6248C72.6912 45.7627 74.8018 42.2861 76.0711 38.462H78.8721ZM81.9479 22.5929H84.4661V38.7893H83.6109L74.0611 27.7344V38.5237H71.543V22.3276H72.4219L81.9479 33.3342V22.5929ZM100.083 38.5237H97.2084L93.4076 32.5859L89.6302 38.5237H86.7319L92.0296 30.3893L87.0646 22.5929H89.9629L93.4311 28.217L96.852 22.5929H99.7266L94.8566 30.3893L100.083 38.5237ZM65.0811 38.5237V22.5929H67.5993V38.5237H65.0811Z" fill="#F08143"/>
<path d="M24.0152 19.7611C25.9855 14.4185 29.4456 9.81695 33.8799 6.47989C38.678 2.86898 44.6127 0.733257 51.0319 0.733257C56.7914 0.733257 62.159 2.45109 66.6649 5.40983C70.9989 8.25605 74.5341 12.2493 76.8525 16.9655L78.1721 16.495L77.4056 22.6795L73.0036 18.3379L74.3106 17.8717C72.2055 13.724 69.0589 10.2118 65.223 7.6928C61.1367 5.00962 56.2645 3.45178 51.0319 3.45178C45.1983 3.45178 39.8142 5.38591 35.4685 8.6565C31.7059 11.4881 28.7162 15.3188 26.8814 19.7611H24.0152ZM0.843369 38.5237V22.5929H5.76079C8.31054 22.5929 10.3694 23.3253 11.9375 24.7896C13.5053 26.2539 14.2893 28.1688 14.2893 30.5342C14.2893 32.8674 13.5013 34.7823 11.9256 36.279C10.3497 37.7755 8.29484 38.5237 5.76079 38.5237H0.843369ZM16.3326 30.5583C16.3008 28.2895 17.1006 26.3423 18.7319 24.7172C20.3633 23.092 22.3033 22.2953 24.5522 22.3276C26.7852 22.2953 28.7294 23.092 30.3842 24.7172C32.0393 26.3423 32.8429 28.2895 32.7954 30.5583C32.8429 32.8274 32.0393 34.7743 30.3842 36.3995C28.7294 38.0248 26.7852 38.8214 24.5522 38.7893C22.3033 38.8214 20.3592 38.0248 18.7201 36.3995C17.0809 34.7743 16.2851 32.8274 16.3326 30.5583ZM30.206 30.5342C30.206 28.8608 29.6675 27.4648 28.5906 26.3464C27.5137 25.228 26.1756 24.6688 24.5759 24.6688C22.9605 24.6688 21.6184 25.224 20.5493 26.3343C19.4802 27.4447 18.9458 28.8446 18.9458 30.5342C18.9458 32.24 19.4762 33.6519 20.5374 34.7703C21.5984 35.8886 22.9446 36.4478 24.5759 36.4478C26.1756 36.4478 27.5137 35.8847 28.5906 34.7582C29.6675 33.6319 30.206 32.2238 30.206 30.5342ZM34.8628 30.5583C34.8153 28.2895 35.6152 26.3423 37.2622 24.7172C38.9091 23.092 40.8572 22.2953 43.1061 22.3276C44.5314 22.3276 45.8381 22.6575 47.0257 23.3173C48.2136 23.9769 49.148 24.87 49.829 25.9966L47.9285 27.4206C46.7725 25.5861 45.173 24.6688 43.1298 24.6688C41.5145 24.6688 40.1683 25.228 39.0914 26.3464C38.0145 27.4648 37.476 28.8687 37.476 30.5583C37.476 32.2479 38.0145 33.6519 39.0914 34.7703C40.1683 35.8886 41.5145 36.4478 43.1298 36.4478C45.173 36.4478 46.7725 35.5305 47.9285 33.6963L49.829 35.1204C49.148 36.2628 48.2177 37.1601 47.0376 37.8117C45.8578 38.4633 44.5473 38.7893 43.1061 38.7893C40.8572 38.8214 38.9091 38.0248 37.2622 36.3995C35.6152 34.7743 34.8153 32.8274 34.8628 30.5583ZM3.36149 36.2307H5.73708C7.54254 36.2307 8.98758 35.7036 10.0726 34.6495C11.1573 33.5957 11.6998 32.2238 11.6998 30.5342C11.6998 28.8286 11.1614 27.4648 10.0844 26.443C9.00751 25.4212 7.55824 24.9103 5.73708 24.9103H3.36149V36.2307Z" fill="#0093BA"/>
</g>
<defs>
<clipPath id="clip0_5_110">
<rect width="101" height="60" fill="white"/>
</clipPath>
</defs>
</svg>
