<svg width="26" height="27" viewBox="0 0 26 27" fill="none" xmlns="http://www.w3.org/2000/svg">
<path fill-rule="evenodd" clip-rule="evenodd" d="M18.0383 10.2877H7.81677L12.9172 14.2063L18.0383 10.2877ZM12.9172 15.2429L11.8183 14.3721L7.7753 17.6895H18.1005L14.0783 14.3307L12.9172 15.2222V15.2429ZM18.8262 17.2334V10.7023L14.7417 13.8331L18.8262 17.2334ZM7.0289 10.7023V17.2334L11.1548 13.8538L7.0289 10.6816V10.7023Z" fill="white"/>
<path fill-rule="evenodd" clip-rule="evenodd" d="M1.67941 12.5268C2.34288 6.90804 7.13229 2.55403 12.9376 2.55403C18.743 2.55403 23.5324 6.90804 24.1959 12.5268H25.8753C25.1911 5.99577 19.6553 0.874634 12.9376 0.874634C6.22002 0.874634 0.684202 5.99577 0 12.5268H1.67941Z" fill="white"/>
<path fill-rule="evenodd" clip-rule="evenodd" d="M12.9376 25.2159C7.13229 25.2159 2.34288 20.862 1.67941 15.2225H0C0.684202 21.7535 6.22002 26.8746 12.9376 26.8746C19.6553 26.8746 25.1911 21.7535 25.8753 15.2225H24.1959C23.5324 20.8412 18.743 25.2159 12.9376 25.2159Z" fill="white"/>
</svg>
