<svg width="26" height="27" viewBox="0 0 26 27" fill="none" xmlns="http://www.w3.org/2000/svg">
<path fill-rule="evenodd" clip-rule="evenodd" d="M1.68749 12.583C2.35416 6.93713 7.16667 2.56213 13 2.56213C18.8333 2.56213 23.6458 6.93713 24.3125 12.583H26C25.3125 6.02047 19.75 0.874634 13 0.874634C6.25001 0.874634 0.687499 6.02047 0 12.583H1.68749Z" fill="white"/>
<path fill-rule="evenodd" clip-rule="evenodd" d="M13 25.3333C7.16667 25.3333 2.35416 20.9583 1.68749 15.2916H0C0.687499 21.8541 6.25001 27 13 27C19.75 27 25.3125 21.8541 26 15.2916H24.3125C23.6458 20.9375 18.8333 25.3333 13 25.3333Z" fill="white"/>
<path fill-rule="evenodd" clip-rule="evenodd" d="M18.0828 17.4791C17.8745 18.0833 17.0203 18.5833 16.3536 18.7292C15.8953 18.8333 15.2912 18.8958 13.2703 18.0625C10.9995 17.125 7.83282 13.75 7.83282 11.5208C7.83282 10.375 8.49948 9.0625 9.64531 9.0625C10.2078 9.0625 10.312 9.0625 10.4995 9.5C10.7078 10.0208 11.2286 11.2708 11.2911 11.4167C11.5411 11.9583 11.0412 12.2708 10.6662 12.7292C10.5412 12.875 10.4162 13.0208 10.562 13.2708C10.7078 13.5208 11.2287 14.375 11.9995 15.0417C12.9787 15.9167 13.7911 16.2083 14.062 16.3125C14.2703 16.3958 14.5203 16.375 14.687 16.2083C14.8745 16 15.1245 15.6458 15.3745 15.2916C15.5411 15.0416 15.7703 15.0208 15.9995 15.1041C16.1661 15.1666 18.1661 16.0833 18.2495 16.25C18.312 16.3542 18.312 16.875 18.1036 17.4791" fill="white"/>
</svg>
