<svg width="37" height="37" viewBox="0 0 37 37" fill="none" xmlns="http://www.w3.org/2000/svg">
<path d="M28.1193 5.43729H9.91026C7.75885 5.43729 6.0148 7.18135 6.0148 9.33276V27.5418C6.0148 29.6932 7.75885 31.4373 9.91026 31.4373H28.1193C30.2707 31.4373 32.0148 29.6932 32.0148 27.5418V9.33276C32.0148 7.18135 30.2707 5.43729 28.1193 5.43729Z" fill="white"/>
<path fill-rule="evenodd" clip-rule="evenodd" d="M19.1826 12.9686C18.643 12.9686 18.1964 13.4473 18.215 13.9834C18.215 14.5386 18.6616 14.9598 19.2198 14.9598C19.7594 14.9598 20.1874 14.5195 20.1874 13.9451C20.1874 13.3898 19.7407 12.9495 19.2012 12.9686M14.0286 13.9834C14.0472 13.4473 13.6007 12.9686 13.0797 12.9686C12.5401 12.9686 12.0935 13.3707 12.0749 13.9259C12.0749 14.4812 12.4657 14.9215 13.0239 14.9407C13.5634 14.9407 14.0286 14.5195 14.0472 13.9834H14.0286ZM23.9458 14.8832C21.7875 14.9981 19.9082 15.6682 18.4011 17.1999C16.8568 18.7316 16.1683 20.608 16.3544 22.9438C15.5171 22.8289 14.7356 22.714 13.9727 22.6566C13.7123 22.6375 13.396 22.6566 13.1727 22.7906C12.4284 23.231 11.7028 23.7096 10.8469 24.2649C10.9957 23.5373 11.1074 22.9055 11.2748 22.2928C11.4051 21.8333 11.3493 21.5844 10.9399 21.2972C8.35364 19.4209 7.25584 16.6064 8.07453 13.7153C8.83739 11.0348 10.6795 9.40742 13.2099 8.56499C16.6521 7.41622 20.5222 8.58413 22.6062 11.3986C23.369 12.4134 23.8156 13.5622 23.9458 14.9024V14.8832Z" fill="#0093BA"/>
<path fill-rule="evenodd" clip-rule="evenodd" d="M25.359 19.4579C24.943 19.4579 24.5994 19.7662 24.5813 20.1601C24.5813 20.5712 24.9069 20.931 25.3409 20.931C25.7569 20.931 26.1005 20.6226 26.1185 20.2287C26.1185 19.8004 25.793 19.4579 25.359 19.4579ZM20.4942 20.931C20.9101 20.931 21.2719 20.6226 21.2719 20.2287C21.2719 19.8176 20.9282 19.4579 20.4942 19.4579C20.0601 19.4579 19.6804 19.8176 19.6985 20.2287C19.6985 20.6226 20.0602 20.9481 20.4761 20.9481L20.4942 20.931ZM28.0536 27.8511C27.3845 27.577 26.7877 27.1488 26.1367 27.0803C25.4856 27.0118 24.8164 27.3715 24.1292 27.44C22.0676 27.6456 20.2229 27.0974 18.7038 25.7613C15.8103 23.2262 16.2262 19.3551 19.5719 17.2653C22.5378 15.4154 26.8962 16.032 28.994 18.6014C30.8206 20.8282 30.6036 23.7915 28.3791 25.6757C27.7281 26.2238 27.493 26.6692 27.9089 27.3886C27.9813 27.5256 27.9994 27.6798 28.0355 27.8511H28.0536Z" fill="#0093BA"/>
</svg>
