<svg width="36" height="37" viewBox="0 0 36 37" fill="none" xmlns="http://www.w3.org/2000/svg">
<path d="M28.0896 5.87466C28.8558 5.87466 29.5906 6.17903 30.1324 6.7208C30.6742 7.26257 30.9785 7.99737 30.9785 8.76355V28.9858C30.9785 29.752 30.6742 30.4868 30.1324 31.0285C29.5906 31.5703 28.8558 31.8747 28.0896 31.8747H7.8674C7.10122 31.8747 6.36642 31.5703 5.82465 31.0285C5.28288 30.4868 4.97852 29.752 4.97852 28.9858V8.76355C4.97852 7.99737 5.28288 7.26257 5.82465 6.7208C6.36642 6.17903 7.10122 5.87466 7.8674 5.87466H28.0896ZM27.3674 28.2636V20.608C27.3674 19.3591 26.8713 18.1614 25.9882 17.2783C25.1051 16.3952 23.9074 15.8991 22.6585 15.8991C21.4307 15.8991 20.0007 16.6502 19.3074 17.7769V16.1736H15.2774V28.2636H19.3074V21.1424C19.3074 20.0302 20.203 19.1202 21.3152 19.1202C21.8515 19.1202 22.3659 19.3333 22.7451 19.7125C23.1243 20.0918 23.3374 20.6061 23.3374 21.1424V28.2636H27.3674ZM10.583 13.9058C11.2266 13.9058 11.8438 13.6501 12.2989 13.195C12.754 12.7399 13.0096 12.1227 13.0096 11.4791C13.0096 10.1358 11.9263 9.038 10.583 9.038C9.93554 9.038 9.31463 9.29519 8.85683 9.75298C8.39904 10.2108 8.14185 10.8317 8.14185 11.4791C8.14185 12.8224 9.23963 13.9058 10.583 13.9058ZM12.5907 28.2636V16.1736H8.58963V28.2636H12.5907Z" fill="white"/>
</svg>
