<svg width="36" height="37" viewBox="0 0 36 37" fill="none" xmlns="http://www.w3.org/2000/svg">
<path fill-rule="evenodd" clip-rule="evenodd" d="M20.0067 17.6631C19.3956 17.4895 19.3956 16.8098 19.3586 16.3325C19.2105 14.6548 19.9697 12.0948 19.0623 10.9956C18.4142 10.3448 15.3218 10.4027 13.4516 10.4894C12.9146 10.5473 12.285 10.6341 11.8221 10.8076C11.3777 10.9812 10.9147 11.2849 10.9147 11.5452C10.9147 11.9213 12.0443 11.8634 12.4517 12.3696C12.8961 12.9048 12.8961 14.0473 12.8961 14.9874C12.8961 16.0722 12.6739 17.5185 12.0999 17.5763C11.2295 17.6052 10.7481 16.9255 10.2851 16.4337C9.37779 15.4647 8.47045 14.2498 7.80382 13.0783C7.47051 12.4564 7.26685 11.7766 6.7854 11.5163C6.02619 11.0969 4.67441 11.068 3.35968 11.0969C2.15606 11.1258 0.415397 11.0101 0.0820856 11.5742C-0.177157 12.1961 0.378394 12.7746 0.693188 13.2808C2.23012 15.8986 3.89666 18.1982 5.93356 20.3821C7.82232 22.4214 9.6 24.0413 13.0627 24.8946C14.0441 25.126 18.3402 25.8058 19.2105 24.8946C19.5068 24.5475 19.4327 23.752 19.5809 23.159C19.729 22.5661 19.9141 21.9875 20.6363 21.9586C21.2474 21.9297 21.5807 22.3347 21.9511 22.6384C22.3584 22.9566 22.7102 23.2314 23.0065 23.5206C23.7287 24.0847 24.4694 24.8512 25.3767 25.1405C26.6174 25.5599 28.5432 25.4297 30.3579 25.3719C31.8208 25.343 32.8763 25.1116 33.0059 24.4318C33.08 23.8967 32.3207 23.1301 31.8763 22.6962C30.7468 21.6115 30.2098 21.2789 28.9321 20.2809C28.358 19.8326 27.6544 19.3697 27.6544 18.8346C27.6173 18.5164 27.9506 18.2127 28.2654 17.8945C29.5801 16.3614 30.9134 15.2767 32.1171 13.6858C32.4504 13.2085 33.2466 12.1238 32.9503 11.5886C32.617 10.9956 30.7282 11.1692 29.5617 11.1692C28.0618 11.1692 26.0989 11.0824 25.7101 11.3138C24.9879 11.6899 24.6916 12.3118 24.3583 12.9048C23.5991 14.2643 22.5806 15.6383 21.5252 16.6796C21.1548 17.0267 20.4326 17.7643 20.0253 17.6486L20.0067 17.6631Z" fill="white"/>
</svg>
