<svg width="36" height="37" viewBox="0 0 36 37" fill="none" xmlns="http://www.w3.org/2000/svg">
<path fill-rule="evenodd" clip-rule="evenodd" d="M17.5148 6.43729C10.6194 6.43729 5.01483 12.0343 5.01483 18.9203C5.01483 21.651 5.89797 24.1781 7.39254 26.2473L5.83002 30.8945L10.6364 29.3681C12.6065 30.6741 14.9673 31.4373 17.5148 31.4373C24.4102 31.4373 30.0148 25.8403 30.0148 18.9542C30.0148 12.0682 24.4102 6.47121 17.5148 6.47121M24.7838 24.1103C24.4781 24.9583 23.2893 25.6707 22.3212 25.8742C21.6758 26.0099 20.8096 26.1286 17.9394 24.9414C14.7125 23.6015 10.2288 18.8525 10.2288 15.6808C10.2288 14.0696 11.1629 12.1869 12.7933 12.1869C13.5746 12.1869 13.7444 12.1869 13.9992 12.8145C14.3049 13.5438 15.0352 15.3247 15.1201 15.5112C15.4768 16.2575 14.7465 16.6985 14.22 17.3599C14.0501 17.5635 13.8633 17.767 14.0671 18.1401C14.2709 18.4963 15.0182 19.7005 16.0882 20.6503C17.4808 21.8884 18.6188 22.2955 19.0264 22.4481C19.3321 22.5669 19.6887 22.5499 19.9095 22.3125C20.1813 22.0072 20.5379 21.5153 20.8946 21.0234C21.1494 20.6673 21.4551 20.6334 21.7947 20.7521C22.0155 20.8369 24.8687 22.1428 24.9876 22.3633C25.0725 22.516 25.0725 23.2453 24.7838 24.0933" fill="white"/>
</svg>
